<svg xmlns="http://www.w3.org/2000/svg" width="20" height="25" fill="none"><path fill="#3A281B" d="M17.021 8.468c.209 0 .398.102.547.274.139.184.209.412.189.652 0 .08-.557 7.962-.875 11.28-.199 2.035-1.37 3.271-3.128 3.305-1.351.034-2.672.046-3.973.046-1.38 0-2.731-.012-4.042-.046-1.699-.046-2.872-1.304-3.06-3.306-.327-3.329-.874-11.199-.884-11.279a.997.997 0 0 1 .2-.652.705.705 0 0 1 .545-.274h14.481ZM11.933.637c.923 0 1.747.721 1.986 1.75l.17.854c.138.696.676 1.188 1.296 1.188h3.044c.406 0 .744.378.744.858v.445c0 .469-.338.858-.744.858H1.126c-.407 0-.745-.39-.745-.858v-.445c0-.48.338-.858.745-.858H4.17c.619 0 1.157-.492 1.296-1.187l.16-.797C5.872 1.358 6.687.637 7.62.637h4.312Z"/></svg>