<svg xmlns="http://www.w3.org/2000/svg" width="20" height="16" fill="none"><path fill="url(#a)" d="M10 0c2.068 0 4.03.718 5.737 2.046 1.707 1.319 3.16 3.249 4.205 5.663a.729.729 0 0 1 0 .572C17.854 13.111 14.137 16 10 16h-.01C5.863 16 2.146 13.11.06 8.281a.728.728 0 0 1 0-.572C2.146 2.88 5.863 0 9.99 0H10Zm0 4.121C7.844 4.121 6.098 5.857 6.098 8c0 2.133 1.746 3.87 3.902 3.87 2.146 0 3.893-1.737 3.893-3.87A3.888 3.888 0 0 0 10 4.121Zm.001 1.453a2.43 2.43 0 0 1 2.43 2.424A2.428 2.428 0 0 1 10 10.412c-1.346 0-2.439-1.086-2.439-2.414 0-.165.02-.32.049-.475h.049a1.997 1.997 0 0 0 2-1.92c.107-.02.224-.03.341-.03Z"/><defs><linearGradient id="a" x1="0" x2="20" y1="8" y2="8" gradientUnits="userSpaceOnUse"><stop stop-color="#3A281B" stop-opacity=".76"/><stop offset=".188" stop-color="#5E4737" stop-opacity=".93"/><stop offset=".355" stop-color="#6A513F"/><stop offset=".52" stop-color="#6A513F"/><stop offset=".65" stop-color="#6A513F"/><stop offset=".845" stop-color="#5E4737" stop-opacity=".93"/><stop offset="1" stop-color="#3A281B" stop-opacity=".76"/></linearGradient></defs></svg>