<svg xmlns="http://www.w3.org/2000/svg" width="341.333" height="342.667" version="1.0" viewBox="0 0 256 257"><g fill="#585C5E" stroke="inherit"><path stroke-width=".1" d="M244.5 1.5c-.5.2-10.2 1.1-21.5 2.1l-20.5 1.9-4 3.5-4 3.6-6.5-1.2c-18.4-3.5-34-4.6-58.8-4.1-29.8.6-40.3 2-73.1 9.8-4.7 1.1-9.7 2.7-11.2 3.4-4.4 2.3-9.1 7.6-11.8 13.5-2.4 5-2.6 6.5-2.4 17.5.2 18.5 4.2 46.2 9.5 65.8 1.1 4.3 1.9 7.9 1.7 8-.2.1-2.2 1.2-4.4 2.3-2.4 1.3-5.2 4-6.9 6.7-9.6 15.5 1.8 34.7 20 33.6 3.7-.3 4.9.1 7.2 2.4l2.7 2.7-19.4 19.4c-16.8 16.9-20 19.6-23.8 20.5-4.8 1.3-11.5 6.7-14 11.5-1 1.9-1.7 5.7-1.7 9.7-.1 5.6.3 7.2 2.9 11.4 10.3 16.7 36.3 12.4 40.4-6.7.4-1.8 7.3-9.5 20.1-22.3L84.4 197l2.6 2.5c2.1 2.1 2.5 3.5 2.5 8.4.1 7.6 3.5 14.5 9.4 18.6 3.9 2.7 5 3 12.5 3 7.3 0 8.7-.3 12.4-2.7 3.4-2.3 4.8-2.7 8.4-2.2 6.9 1 12.5-1.2 25.8-10.1 46.7-31 68.5-65.7 77.8-123.5 1.1-6.9 2.3-15.7 2.7-19.5.6-6.8.8-7.1 6.1-12.6l5.5-5.6 2.4-25.3c1.4-13.9 2.2-25.7 1.9-26.1-.5-.8-7.7-1.1-9.9-.4zm4.1 8.7c-.5 3-1.2 10.2-3.3 33.5l-.6 7.2-60.6 55.8c-74.4 68.5-69.1 63.7-69.5 63.2-.2-.2 1-6.7 2.5-14.3l2.8-14 26.5-26.5c14.7-14.7 26.6-27.3 26.6-28.2 0-.9-.8-2-1.7-2.3-1.3-.5-8.3 5.9-28.7 26.2l-27.1 26.9-14.9 2.2c-8.2 1.1-15.2 1.8-15.5 1.6-.2-.3 1.1-2.2 3.1-4.3 1.9-2 28.9-31.2 59.8-64.7l56.3-61 9.6-1.2c13.5-1.6 26.9-3 31.4-3.2 3.7-.1 3.8-.1 3.3 3.1zm-73.8 4.9c8.1 1.2 14.9 2.3 15.1 2.5.2.1-3.2 4.2-7.5 8.9-5.6 6.1-8.2 8.4-9.5 8-4.1-1.3-27.3-3.5-37.4-3.5-6.1 0-16.8.7-23.8 1.5-14 1.6-39.7 6.9-43.7 9-5.4 2.8-10.2 9.9-11.5 16.7-1.7 8.8 3.7 46.6 9.1 64.5 1.9 6.2 3.4 11.6 3.4 12 0 .4-1.9-1.2-4.2-3.5C60.7 127.3 54 124 50 124c-2 0-2.8-1.8-5.9-14.5-3.9-16-8.1-47.5-8.1-61 0-10.3 4.7-19.2 12-23 7.8-4 44.8-10.7 71-12.9 10.7-.9 41.8.5 55.8 2.5zm-42.8 44v22.1l-24.2 26.1c-13.3 14.4-25.4 27.5-26.9 29.1l-2.8 3-2.1-5c-6-13.7-9.9-30.2-12.5-51.9-1.9-16.8-1.9-23.8.1-27.8 3.9-7.6 6.7-9 27.5-13.2 13.1-2.6 25.5-4.1 35.2-4.4l5.7-.1v22.1zm25.8-21c5.3.6 10.1 1.4 10.6 1.9.8.8-28.1 33-29.6 33-.5 0-.8-8.1-.8-18V37h5c2.8 0 9.4.5 14.8 1.1zm74.5 37.1c-7.3 65-29 102.2-78.8 135.4-10.3 6.9-12.3 7.8-17.3 8.2-5.1.4-5.5.3-4.6-1.4.5-1.1.9-5.4.9-9.7V200h3.6c4.6 0 11.5-3.5 21.4-11 30.4-22.8 46.3-50 53-90.5l1.4-9 9.8-9.2c5.4-5.1 10.1-9.3 10.5-9.3.3 0 .4 1.9.1 4.2zm-28.8 30c-6.7 32.5-21.5 57.3-45.9 76.3-8.4 6.5-17.4 12.5-18.8 12.5-.4 0-.8-8.3-.8-18.4v-18.4l33.2-30.6c18.3-16.8 33.4-30.4 33.6-30.2.2.3-.4 4.2-1.3 8.8zM55.4 131.5c1.7.8 18.3 16.7 36.8 35.3 36.6 36.7 36.8 36.9 34.8 45.7-1.1 5.1-7.2 10.9-12.3 11.9-11.3 2.1-22.6-9.8-18.9-19.7.7-1.8.8-3.6.2-4.6-.5-.9-9.2-9.9-19.4-20l-18.5-18.4-7.8-.1c-6.1-.1-8.4-.5-10.4-2-4.1-3.2-6.1-6.6-6.7-11.2-.6-5.6.2-8.5 3.5-12.5 4.8-5.6 12.3-7.4 18.7-4.4zm57.6 13.7c0 2.1-5 27.2-5.6 27.7-.2.3-5.9-5.1-12.7-11.8-8.2-8.3-11.7-12.5-10.8-12.9 1.9-.7 22.8-3.9 26.4-4.1 1.6 0 2.7.4 2.7 1.1zm18.6 48.5c-.7.8-8.7-4.8-13.5-9.4l-4.6-4.4 9-8.3 9-8.4.3 15.1c.1 8.2.1 15.2-.2 15.4zm-58.8-8.4 7.2 7.2-9 9-9 9-7.5-7.5-7.5-7.5 8.7-8.7c4.8-4.9 9-8.8 9.3-8.8.3 0 3.8 3.3 7.8 7.3zm-22 22 7.2 7.2-7.8 7.8-7.7 7.7-7.5-7.5-7.4-7.5 7.4-7.5c4.1-4.1 7.7-7.5 8-7.5.3 0 3.8 3.3 7.8 7.3zm-19.4 19.6 8.9 8.9-2.4 4.9c-3.1 6.3-7.7 9.3-14.1 9.3-10.9 0-18.4-8.8-16.4-19.5 1.1-5.9 8.1-12.3 13.6-12.5.9 0 5.5 4 10.4 8.9z"/><path stroke-width=".1" d="M221.4 24.5c-.4.9-.2 5.8.3 11 .4 5.2.5 9.5.2 9.5-.4 0-3-2.6-5.8-5.7-5.2-6-8.4-6.9-3.8-1.1 5.7 7.2 11.6 13.2 12.2 12.6.3-.3.2-4.1-.4-8.3-.6-4.2-1.1-9.3-1.1-11.3v-3.7l6.3 6.9c3.5 3.9 6.6 6.6 6.9 6 .3-.5-2.8-4.6-6.8-9.2-5.5-6.1-7.6-7.9-8-6.7zM200 43.2c-6.1 4.2-6 4.8 1.5 13.2 3.7 4.1 7.2 7.3 7.7 7 .5-.4-.3-1.9-1.8-3.5l-2.8-2.9 3.1-3.3c3.8-4.1 4.6-6.3 3.1-9-2.3-4.4-5.8-4.9-10.8-1.5zm7.8 1c2 2 1.3 5.8-1.5 8.4l-2.8 2.6-3.2-3.7-3.2-3.7 2.7-2.4c3-2.6 6.1-3.1 8-1.2zM188.8 53.6c-.4.4.6 2.4 2.2 4.4l3 3.8-4.7 3.8-4.6 3.8-3.2-3.8c-2.1-2.5-3.5-3.5-3.9-2.7-.9 1.4 13.2 17.3 14.6 16.5.5-.3-.5-2.1-2.2-4-1.6-1.9-3-3.8-3-4.2 0-.5 1.8-2.6 4-4.7l4.1-4 3.4 4c3.4 4.1 6 4.3 3.2.3-3.4-4.9-12.3-13.9-12.9-13.2z"/></g></svg>