<svg xmlns="http://www.w3.org/2000/svg" width="70" height="70" fill="none"><path fill="url(#a)" d="M67.242.108c-.138.055-2.823.302-5.951.577l-5.675.522-1.107.961-1.108.99-1.799-.33C46.51 1.866 42.19 1.564 35.325 1.7c-8.249.165-11.155.55-20.235 2.693-1.3.302-2.685.742-3.1.934-1.218.632-2.52 2.088-3.267 3.709-.664 1.374-.72 1.786-.664 4.808.055 5.083 1.163 12.693 2.63 18.078.304 1.182.526 2.17.47 2.198-.055.028-.609.33-1.218.632-.664.357-1.439 1.1-1.91 1.841-2.657 4.258.499 9.534 5.537 9.231 1.024-.082 1.356.028 1.993.66l.747.742-5.37 5.33c-4.65 4.643-5.536 5.385-6.588 5.632-1.329.357-3.184 1.84-3.876 3.16-.276.522-.47 1.566-.47 2.664-.028 1.54.083 1.979.803 3.133 2.85 4.588 10.048 3.406 11.183-1.841.11-.495 2.02-2.61 5.564-6.127l5.37-5.357.72.686c.581.577.692.962.692 2.308.027 2.088.969 3.984 2.602 5.11 1.08.742 1.384.825 3.46.825 2.02 0 2.408-.083 3.433-.742.94-.632 1.328-.742 2.325-.605 1.91.275 3.46-.33 7.142-2.774C56.225 50.11 62.26 40.578 64.834 24.698c.304-1.896.637-4.314.747-5.358.166-1.868.222-1.95 1.689-3.462l1.522-1.538.665-6.951c.387-3.82.609-7.061.526-7.171-.139-.22-2.132-.303-2.74-.11Zm1.135 2.39c-.138.824-.332 2.802-.913 9.204l-.166 1.978-16.776 15.331c-20.595 18.82-19.127 17.501-19.238 17.364-.055-.055.277-1.84.692-3.929l.775-3.846 7.336-7.281c4.069-4.039 7.363-7.5 7.363-7.748 0-.247-.222-.55-.47-.632-.36-.137-2.298 1.621-7.945 7.198l-7.502 7.391-4.125.605c-2.27.302-4.207.494-4.29.44-.055-.083.304-.605.858-1.182.526-.55 8-8.572 16.553-17.776l15.585-16.76 2.658-.33c3.737-.439 7.446-.824 8.692-.879 1.024-.027 1.052-.027.913.852ZM47.948 3.844c2.242.33 4.125.632 4.18.687.055.028-.886 1.154-2.076 2.445-1.55 1.676-2.27 2.308-2.63 2.198-1.135-.357-7.557-.961-10.353-.961-1.688 0-4.65.192-6.588.412-3.875.44-10.99 1.896-12.097 2.473-1.494.769-2.823 2.72-3.183 4.588-.47 2.418 1.024 12.803 2.519 17.72.526 1.704.941 3.188.941 3.298 0 .11-.526-.33-1.163-.962-1.135-1.071-2.99-1.978-4.096-1.978-.554 0-.775-.495-1.634-3.984-1.08-4.396-2.242-13.05-2.242-16.76 0-2.83 1.301-5.274 3.322-6.318 2.16-1.1 12.401-2.94 19.654-3.545 2.962-.247 11.57.138 15.446.687ZM36.1 15.934v6.071l-6.699 7.17a5385.913 5385.913 0 0 1-7.446 7.996l-.775.824-.581-1.374c-1.661-3.764-2.74-8.297-3.46-14.259-.526-4.616-.526-6.539.027-7.638 1.08-2.088 1.855-2.473 7.613-3.626 3.626-.715 7.058-1.127 9.744-1.21l1.577-.027v6.072Zm7.142-5.77c1.467.164 2.796.384 2.934.521.222.22-7.778 9.067-8.193 9.067-.139 0-.222-2.225-.222-4.945V9.86h1.384c.775 0 2.602.138 4.097.303Zm20.623 10.193c-2.02 17.858-8.028 28.078-21.813 37.2-2.851 1.896-3.405 2.143-4.789 2.253-1.412.11-1.522.082-1.273-.385.138-.302.249-1.483.249-2.665v-2.115h.996c1.274 0 3.184-.962 5.924-3.023 8.415-6.264 12.817-13.737 14.672-24.864l.387-2.473 2.713-2.527c1.495-1.401 2.796-2.555 2.906-2.555.083 0 .111.522.028 1.154Zm-7.972 8.242c-1.855 8.93-5.952 15.743-12.706 20.963-2.325 1.786-4.817 3.434-5.204 3.434-.11 0-.222-2.28-.222-5.055v-5.055l9.19-8.408c5.066-4.615 9.246-8.352 9.302-8.297.055.082-.111 1.154-.36 2.418Zm-40.997 7.226c.471.22 5.066 4.588 10.187 9.698C35.215 55.606 35.27 55.661 34.716 58.08c-.304 1.401-1.993 2.995-3.404 3.27-3.128.577-6.257-2.693-5.232-5.413.194-.495.221-.99.055-1.264-.138-.247-2.547-2.72-5.37-5.495l-5.121-5.055-2.16-.028c-1.688-.027-2.325-.137-2.878-.549-1.135-.88-1.689-1.813-1.855-3.077-.166-1.539.055-2.336.969-3.434 1.329-1.539 3.405-2.034 5.176-1.21Zm15.945 3.764c0 .577-1.384 7.473-1.55 7.61-.056.083-1.633-1.401-3.516-3.242-2.27-2.28-3.238-3.434-2.99-3.544.527-.192 6.312-1.072 7.309-1.127.442 0 .747.11.747.303Zm5.149 13.325c-.194.22-2.409-1.319-3.737-2.583l-1.274-1.209 2.492-2.28 2.491-2.308.083 4.149c.028 2.253.028 4.176-.055 4.23Zm-16.277-2.308 1.993 1.978-2.491 2.473-2.492 2.473-2.076-2.061-2.076-2.06 2.409-2.39c1.328-1.347 2.49-2.419 2.574-2.419.083 0 1.052.907 2.159 2.006Zm-6.09 6.044 1.993 1.979-2.159 2.143-2.132 2.115-2.076-2.06-2.048-2.061 2.048-2.06c1.135-1.127 2.132-2.061 2.215-2.061.083 0 1.052.906 2.16 2.005Zm-5.37 5.385 2.463 2.446-.664 1.346c-.858 1.73-2.131 2.555-3.903 2.555-3.017 0-5.093-2.418-4.54-5.358.305-1.62 2.243-3.379 3.765-3.434.25 0 1.522 1.1 2.879 2.445Z"/><path fill="url(#b)" d="M60.848 6.427c-.11.247-.055 1.594.083 3.022.11 1.429.139 2.61.055 2.61-.11 0-.83-.714-1.605-1.566-1.44-1.648-2.325-1.895-1.052-.302 1.578 1.978 3.211 3.627 3.377 3.462.083-.083.055-1.127-.11-2.28-.167-1.154-.305-2.556-.305-3.105V7.25l1.744 1.896c.969 1.072 1.827 1.813 1.91 1.649.083-.138-.775-1.264-1.882-2.528-1.523-1.676-2.104-2.17-2.215-1.84Z"/><path fill="url(#c)" d="M54.924 11.565c-1.689 1.154-1.661 1.318.415 3.626 1.024 1.127 1.993 2.006 2.132 1.923.138-.11-.083-.521-.499-.961l-.775-.797.858-.906c1.052-1.127 1.274-1.731.858-2.473-.636-1.21-1.605-1.347-2.99-.412Zm2.159.274c.554.55.36 1.594-.415 2.308l-.775.715-.886-1.017-.886-1.017.747-.659c.831-.714 1.69-.852 2.215-.33Z"/><path fill="url(#d)" d="M51.824 14.422c-.111.11.166.66.609 1.209l.83 1.044-1.3 1.044-1.274 1.044-.886-1.044c-.581-.687-.969-.962-1.08-.742-.249.385 3.654 4.753 4.042 4.533.138-.082-.139-.577-.61-1.099-.442-.522-.83-1.044-.83-1.154 0-.137.499-.714 1.108-1.29l1.135-1.1.94 1.1c.942 1.126 1.662 1.18.887.082-.942-1.347-3.405-3.82-3.571-3.627Z"/><defs><linearGradient id="a" x1="33.028" x2="33.028" y1="23.333" y2="58.333" gradientUnits="userSpaceOnUse"><stop stop-color="#423D39"/><stop offset=".28" stop-color="#544D48"/><stop offset=".485" stop-color="#645C56"/><stop offset=".715" stop-color="#423D39"/></linearGradient><linearGradient id="b" x1="61.129" x2="61.129" y1="8.775" y2="12.442" gradientUnits="userSpaceOnUse"><stop stop-color="#423D39"/><stop offset=".28" stop-color="#544D48"/><stop offset=".485" stop-color="#645C56"/><stop offset=".715" stop-color="#423D39"/></linearGradient><linearGradient id="c" x1="55.789" x2="55.789" y1="13.009" y2="16.092" gradientUnits="userSpaceOnUse"><stop stop-color="#423D39"/><stop offset=".28" stop-color="#544D48"/><stop offset=".485" stop-color="#645C56"/><stop offset=".715" stop-color="#423D39"/></linearGradient><linearGradient id="d" x1="52.02" x2="52.02" y1="16.78" y2="20.334" gradientUnits="userSpaceOnUse"><stop stop-color="#423D39"/><stop offset=".28" stop-color="#544D48"/><stop offset=".485" stop-color="#645C56"/><stop offset=".715" stop-color="#423D39"/></linearGradient></defs></svg>