<svg xmlns="http://www.w3.org/2000/svg" width="20" height="20" fill="none"><path fill="url(#a)" fill-rule="evenodd" d="M1.99 14.724.676 18.227a.75.75 0 0 0 .965.966l3.504-1.314a3 3 0 0 0 1.068-.687L16.36 7.044s-.354-1.06-1.414-2.12c-1.06-1.062-2.122-1.415-2.122-1.415L2.677 13.656a3 3 0 0 0-.687 1.068Zm12.249-12.63L15.622.712c.248-.248.579-.406.925-.349.487.081 1.232.323 1.934 1.026.703.702.945 1.447 1.025 1.934.058.346-.1.676-.348.925L17.774 5.63s-.353-1.06-1.414-2.121c-1.06-1.06-2.121-1.414-2.121-1.414Z" clip-rule="evenodd"/><defs><linearGradient id="a" x1=".626" x2="19.518" y1="9.797" y2="9.797" gradientUnits="userSpaceOnUse"><stop stop-color="#3A281B" stop-opacity=".76"/><stop offset=".188" stop-color="#5E4737" stop-opacity=".93"/><stop offset=".355" stop-color="#6A513F"/><stop offset=".52" stop-color="#6A513F"/><stop offset=".65" stop-color="#6A513F"/><stop offset=".845" stop-color="#5E4737" stop-opacity=".93"/><stop offset="1" stop-color="#3A281B" stop-opacity=".76"/></linearGradient></defs></svg>