<svg xmlns="http://www.w3.org/2000/svg" width="25" height="25" fill="#D8B692"><path d="M22.88 9.3 5.558.637A3.71 3.71 0 0 0 .51 5.464l2.97 6.646a1.312 1.312 0 0 1 0 1.015L.51 19.77a3.714 3.714 0 0 0 3.39 5.223 3.885 3.885 0 0 0 1.67-.396l17.323-8.664a3.713 3.713 0 0 0 0-6.633h-.013Zm-1.1 4.419L4.456 22.382a1.237 1.237 0 0 1-1.67-1.609l2.957-6.646c.038-.088.071-.18.099-.272h8.525a1.237 1.237 0 0 0 0-2.475H5.843a2.472 2.472 0 0 0-.099-.273L2.787 4.462a1.238 1.238 0 0 1 1.67-1.609l17.322 8.664a1.237 1.237 0 0 1 0 2.203Z"/></svg>