<svg width="20" height="25" viewBox="0 0 20 25" fill="none" xmlns="http://www.w3.org/2000/svg">
<path d="M17.0215 8.46833C17.2296 8.46833 17.4185 8.57007 17.5677 8.74197C17.7069 8.92556 17.7769 9.15359 17.7566 9.39448C17.7566 9.474 17.2002 17.3557 16.8824 20.6732C16.6834 22.7091 15.5116 23.9452 13.7541 23.9791C12.4026 24.013 11.0816 24.0247 9.78096 24.0247C8.40007 24.0247 7.04964 24.013 5.73881 23.9791C4.04011 23.9335 2.86737 22.6752 2.67852 20.6732C2.35157 17.344 1.80531 9.474 1.79515 9.39448C1.785 9.15359 1.85404 8.92556 1.99416 8.74197C2.13225 8.57007 2.33126 8.46833 2.54043 8.46833H17.0215ZM11.9326 0.636719C12.8556 0.636719 13.68 1.35823 13.9186 2.38729L14.0892 3.24094C14.2273 3.93673 14.7655 4.42904 15.3848 4.42904H18.4289C18.835 4.42904 19.1731 4.80675 19.1731 5.28737V5.73173C19.1731 6.20066 18.835 6.59006 18.4289 6.59006H1.12613C0.718974 6.59006 0.380859 6.20066 0.380859 5.73173V5.28737C0.380859 4.80675 0.718974 4.42904 1.12613 4.42904H4.17018C4.78854 4.42904 5.32668 3.93673 5.46578 3.24211L5.62519 2.44459C5.87294 1.35823 6.68827 0.636719 7.62139 0.636719H11.9326Z" fill="#3A281B"/>
</svg>
