<svg width="200" height="250" fill="none" xmlns="http://www.w3.org/2000/svg"><path d="M16.975 8.516c.21 0 .399.106.548.285.14.192.21.43.19.682 0 .083-.558 8.31-.877 11.774-.2 2.125-1.375 3.415-3.137 3.45-1.356.036-2.68.048-3.985.048-1.385 0-2.739-.012-4.054-.047-1.703-.048-2.88-1.361-3.069-3.451-.328-3.476-.875-11.691-.886-11.774-.01-.252.06-.49.2-.682a.698.698 0 0 1 .548-.285h14.522ZM11.872.34c.926 0 1.752.754 1.992 1.828l.17.89c.14.727.679 1.241 1.3 1.241h3.053c.407 0 .746.394.746.896v.464c0 .49-.339.896-.746.896H1.035c-.409 0-.748-.406-.748-.896v-.464c0-.502.34-.896.748-.896h3.052c.62 0 1.16-.514 1.3-1.239l.16-.832C5.794 1.094 6.612.34 7.547.34h4.324Z" fill="currentColor"/></svg>