<svg version="1.0" xmlns="http://www.w3.org/2000/svg" width="1706.667" height="1706.667" viewBox="0 0 1280 1280"><path d="M133.2 49.6C118 57.1 115.8 78 129 89.2l4 3.5-.2 201.8-.3 201.9-7 1.3c-20.7 3.8-35.3 18.8-33 34.1 1 6.5 6.6 12.2 12.1 12.2 2.3 0 5.4-1 7.5-2.3 12.1-7.3 14.8-8.7 18.7-9.3 5.2-.8 11.9 1.5 16.7 5.7 3.8 3.4 9.7 14.2 11.8 21.9 10.8 39.1 4.4 82.7-18.9 129.2-2.5 5-4.7 8.8-4.9 8.6-.2-.2.1-4.8.7-10.2 3-26.2-5.4-48.9-23.7-63.9-9.2-7.6-30.3-17.4-32.5-15.1-1.5 1.7-6.9 18.9-8.4 27.3-2.9 15.1-1.7 31.1 3.5 47.1 1.2 3.6 5.4 13.5 9.4 22 4.1 8.5 8.1 18.3 9 21.8 3.1 12.2 1.7 29.7-3.2 40.8l-1.7 3.9-.7-10.5c-1.6-23.4-12.8-42.4-33.3-56.2-2.3-1.6-4.3-2.8-4.6-2.8-.3 0-.5 4.6-.6 10.3 0 7.8-.8 13.3-3.1 23.2-7.2 30.2-9.5 50.3-7.4 65.8.7 4.9 3.2 16.7 5.6 26.3 9.3 36.8 9.8 57.3 2.5 98.9-4.8 27.7-6.5 66.7-3.9 93.1 7.2 75 37.9 132.7 84.6 159.5 10 5.7 24 11.3 36.4 14.6 9.8 2.6 11.5 2.8 31.4 2.7 20.1 0 21.4-.1 31-2.9 11.9-3.4 13.1-3.5 26-1 14.2 2.8 39.4 2.7 52.5-.2 23.6-5.1 42.4-17.4 50.8-33.1 3.3-6.1 6.2-16.4 6.2-22v-3.2h17.3c58.5 0 123.2-19.1 190.7-56.2 9.6-5.3 23.8-13.1 31.5-17.3 46.8-25.8 85.4-41.9 110.4-46 17.6-3 37-.5 49.4 6.3 6.6 3.5 13.1 11.1 15.7 18 3.1 8.3 2.6 19.2-1.3 25-3.8 5.8-9.1 9-17.3 10.6l-6.9 1.2 6.7 1.3c14.6 2.8 29-2.6 37.4-14.1l3.6-4.8 207.6.1h207.7l3 4.2c4 5.4 8.4 8.3 14.9 9.8 4.4 1 6.2.9 11-.5 17.8-5.2 23.7-27.6 10.6-40.3-9.9-9.6-23.5-9.7-33.6-.1l-5.1 4.8h-206.9c-166.3 0-207-.2-207.5-1.2-.4-.7-2-4.2-3.5-7.8-3.5-7.7-12.4-17.2-20.1-21.3-2.8-1.5-8.5-3.6-12.5-4.6-6.7-1.7-7-2-4.3-2.6 5.3-1.3 14.1-6.5 18.3-10.8 4.6-4.8 11.2-15.2 11.2-17.8 0-2.1-12.7-6.5-29.1-10-13.7-3-42.5-3.4-53.4-.7-25.9 6.4-33.7 11.6-91 61.2-13.2 11.5-28.9 24.5-35 29.1-11 8.2-27.1 18.2-28 17.3-.3-.2 3.7-3.8 8.8-7.9 12.2-9.8 31.4-29.2 41.4-41.8 8.9-11.1 16.5-22.3 29.8-43.6 17.3-27.9 25.9-36.5 36.2-36.5 6.4 0 6.5-.4 1.8-9.7-6.7-13.4-17.4-21.1-30.5-22.1l-6.7-.4 3.4-5.7c5.3-8.8 7.8-18 7.7-29.1 0-21.9-6.5-34.5-43.6-84.7-30.3-41.2-41.6-60.1-45.9-77.4-4.4-17.3.8-32.9 13.6-40.5 13.2-7.7 29.9-3.7 36.2 8.6 1.3 2.5 2.6 7.3 2.9 10.8 1.3 12 6.7 13.4 12.1 3 2.2-4.4 2.7-6.6 2.7-13.3.1-6.8-.3-8.9-2.7-13.7-6.8-13.8-23.4-21.8-45.2-21.8-11.8 0-20 1.8-29.8 6.4-36.8 17.1-52.4 60.4-39.5 109.5 1.6 6.4 3.2 12.5 3.5 13.6.4 1.9 0 2-9 1.7-8.1-.3-31.3 2.1-32.6 3.3-.2.2 3 3.7 7.1 7.7 22.9 22.4 40.5 52.3 50.4 85.2 2.6 8.6 2.5 10.7-.1 5.5-2.7-5.2-10.6-12.9-16-15.7-5.9-3-17.5-4.1-24.2-2.3-6.7 1.8-13.3 7-16.7 13.1-2.8 5-3.1 6.3-3.1 14s.4 9.2 3.7 16.3c4.2 8.7 11.3 16.9 19.8 22.7 12.7 8.7 22.1 21.7 25.7 35.3 1.9 7.4 2.1 22.6.4 31.7-1.9 9.8-6.8 24.4-11.6 34.5-15.4 32.2-50.4 60.4-92.2 74.1-22.7 7.5-32.6 8.9-62.8 8.9-27.7-.1-35.5-.9-55.6-6-53.9-13.6-90.5-45.1-101.6-87.4-3.2-12.2-3.6-30.7-1-41.6 4.4-17.6 16.1-33.7 26.7-36.9 9.2-2.7 10.6-1.7 4 2.9-11.7 8.1-19.3 28.5-17.5 47 1.1 11.8 2.5 16.6 7.5 27 12.4 25.3 38.1 43.8 70.5 50.7 9.1 1.9 31.3 1.6 41.5-.6 40.3-8.5 77.4-37 93.5-71.8 16.3-35.4 13.3-80.1-7.7-113.4-24-38.1-63.4-59.6-113.8-62.1-28.2-1.3-62.1 5.4-91.4 18.3-5.5 2.4-10.2 4.2-10.4 3.9-1-1 9.7-16.5 15.8-22.6 15.6-15.9 37.6-26.4 83.3-39.8 23-6.8 31.6-10.6 42.4-18.7 17.1-13.1 28.8-33.2 32.8-56.8.6-3.4.4-3.8-1.1-3.2-.9.4-6.7 2-12.8 3.6-24.1 6.4-54.3 11-72.1 11-12 .1-27.1 1.6-34.8 3.5-8.7 2.3-23.4 9.4-32.8 16-4.3 3-8.1 5.5-8.4 5.5-.4 0 6.7-7.8 15.6-17.2 41.5-44.2 54.9-66.6 54.9-91.7 0-22.6-11.9-38.3-35.4-46.8-4.2-1.5-17.9-4.4-18.4-3.9-.1.2.7 4.1 1.8 8.7 2.7 10.9 3.6 30 2.1 41-2.3 16.3-9.2 36.2-20.1 57.9-2.8 5.6-12.1 22.9-20.7 38.3-27.6 49.9-41.8 79.3-55 114.2-26.4 69.6-34.5 130.4-25.3 188 4 25.2 10.8 46.3 21.9 69 17.4 35.2 41.4 62.1 71.5 80.1l8.1 4.9-7.3.3c-14.5.6-35.6-4.9-56.1-14.4-43.4-20.3-70.1-61.2-79.5-121.9-3.1-20.1-3.8-34.7-3.3-65.1.4-23.8.9-32.7 2.6-43.7 4.1-26 13-57.2 24.6-86.2C96.1 825 103.2 810 131 754c33.7-67.9 45-93.9 52-120.3 4.7-18 6.2-29.4 6.2-47.7 0-18.9-2-31.3-7.6-46.2-4.7-12.4-9-19.2-18.3-28.7l-8.3-8.4V297.4c0-131.3.3-205.4 1-205.4 1.8 0 8.1-6.4 10.3-10.4 4.5-8.6 2.1-21.5-5.1-28.4-7.2-6.7-18.8-8.2-28-3.6zM279 850.3c42 10 72.7 35.3 82 67.7 2.8 9.6 3.8 29.8 2 40.8-5.3 33.5-25.9 61.4-51.8 70.4-5.9 2-8.6 2.3-22.2 2.3-17.6 0-24.8-1.4-36.5-7.1-16.1-7.8-26.1-21.2-28.5-38.3-1.7-12 1.3-23.9 8.1-31.6 3.4-3.8 10.5-9.5 11.9-9.5.5 0 1 3.8 1.1 8.4.4 9.5 2.1 12.8 8 15.9 4.7 2.5 17.7 1.9 23.5-1.1 16.3-8.4 16.4-28.7.1-43.8-22.8-21.1-57.5-18.9-81.2 5.2-27.4 27.9-29.7 75.8-5.8 117.8 6.3 10.9 12.3 18.6 22.8 29.1 23.8 23.8 55.2 39.7 99.4 50.4 7.8 1.9 12.9 3.7 13.8 4.8 2.9 3.7 4.3 8.4 4.3 15.1 0 5.7-.5 8-3 13-11.7 23.3-45.8 27.7-89.1 11.4-5.8-2.2-14.3-5.8-19.1-8.1-58.1-27.7-97.8-97.7-97.8-172.5 0-35.7 9-67.9 25.7-91.5 18.4-26 48.5-45.2 78.3-50.1 4.1-.6 8.2-1.3 9-1.5.8-.2 8.9-.2 18 0 13.1.3 18.6.9 27 2.8z"/></svg>