<svg version="1.0" xmlns="http://www.w3.org/2000/svg"
 width="256.000000pt" height="257.000000pt" viewBox="0 0 256.000000 257.000000"
 preserveAspectRatio="xMidYMid meet">

<g transform="translate(0.000000,257.000000) scale(0.100000,-0.100000)"
fill="#000000" stroke="none">
<path d="M2445 2555 c-5 -2 -102 -11 -215 -21 l-205 -19 -40 -35 -40 -36 -65
12 c-184 35 -340 46 -588 41 -298 -6 -403 -20 -731 -98 -47 -11 -97 -27 -112
-34 -44 -23 -91 -76 -118 -135 -24 -50 -26 -65 -24 -175 2 -185 42 -462 95
-658 11 -43 19 -79 17 -80 -2 -1 -22 -12 -44 -23 -24 -13 -52 -40 -69 -67 -96
-155 18 -347 200 -336 37 3 49 -1 72 -24 l27 -27 -194 -194 c-168 -169 -200
-196 -238 -205 -48 -13 -115 -67 -140 -115 -10 -19 -17 -57 -17 -97 -1 -56 3
-72 29 -114 103 -167 363 -124 404 67 4 18 73 95 201 223 l194 195 26 -25 c21
-21 25 -35 25 -84 1 -76 35 -145 94 -186 39 -27 50 -30 125 -30 73 0 87 3 124
27 34 23 48 27 84 22 69 -10 125 12 258 101 467 310 685 657 778 1235 11 69
23 157 27 195 6 68 8 71 61 126 l55 56 24 253 c14 139 22 257 19 261 -5 8 -77
11 -99 4z m41 -87 c-5 -30 -12 -102 -33 -335 l-6 -72 -606 -558 c-744 -685
-691 -637 -695 -632 -2 2 10 67 25 143 l28 140 265 265 c147 147 266 273 266
282 0 9 -8 20 -17 23 -13 5 -83 -59 -287 -262 l-271 -269 -149 -22 c-82 -11
-152 -18 -155 -16 -2 3 11 22 31 43 19 20 289 312 598 647 l563 610 96 12
c135 16 269 30 314 32 37 1 38 1 33 -31z m-738 -49 c81 -12 149 -23 151 -25 2
-1 -32 -42 -75 -89 -56 -61 -82 -84 -95 -80 -41 13 -273 35 -374 35 -61 0
-168 -7 -238 -15 -140 -16 -397 -69 -437 -90 -54 -28 -102 -99 -115 -167 -17
-88 37 -466 91 -645 19 -62 34 -116 34 -120 0 -4 -19 12 -42 35 -41 39 -108
72 -148 72 -20 0 -28 18 -59 145 -39 160 -81 475 -81 610 0 103 47 192 120
230 78 40 448 107 710 129 107 9 418 -5 558 -25z m-428 -440 l0 -221 -242
-261 c-133 -144 -254 -275 -269 -291 l-28 -30 -21 50 c-60 137 -99 302 -125
519 -19 168 -19 238 1 278 39 76 67 90 275 132 131 26 255 41 352 44 l57 1 0
-221z m258 210 c53 -6 101 -14 106 -19 8 -8 -281 -330 -296 -330 -5 0 -8 81
-8 180 l0 180 50 0 c28 0 94 -5 148 -11z m745 -371 c-73 -650 -290 -1022 -788
-1354 -103 -69 -123 -78 -173 -82 -51 -4 -55 -3 -46 14 5 11 9 54 9 97 l0 77
36 0 c46 0 115 35 214 110 304 228 463 500 530 905 l14 90 98 92 c54 51 101
93 105 93 3 0 4 -19 1 -42z m-288 -300 c-67 -325 -215 -573 -459 -763 -84 -65
-174 -125 -188 -125 -4 0 -8 83 -8 184 l0 184 332 306 c183 168 334 304 336
302 2 -3 -4 -42 -13 -88z m-1481 -263 c17 -8 183 -167 368 -353 366 -367 368
-369 348 -457 -11 -51 -72 -109 -123 -119 -113 -21 -226 98 -189 197 7 18 8
36 2 46 -5 9 -92 99 -194 200 l-185 184 -78 1 c-61 1 -84 5 -104 20 -41 32
-61 66 -67 112 -6 56 2 85 35 125 48 56 123 74 187 44z m576 -137 c0 -21 -50
-272 -56 -277 -2 -3 -59 51 -127 118 -82 83 -117 125 -108 129 19 7 228 39
264 41 16 0 27 -4 27 -11z m186 -485 c-7 -8 -87 48 -135 94 l-46 44 90 83 90
84 3 -151 c1 -82 1 -152 -2 -154z m-588 84 l72 -72 -90 -90 -90 -90 -75 75
-75 75 87 87 c48 49 90 88 93 88 3 0 38 -33 78 -73z m-220 -220 l72 -72 -78
-78 -77 -77 -75 75 -74 75 74 75 c41 41 77 75 80 75 3 0 38 -33 78 -73z m-194
-196 l89 -89 -24 -49 c-31 -63 -77 -93 -141 -93 -109 0 -184 88 -164 195 11
59 81 123 136 125 9 0 55 -40 104 -89z"/>
<path d="M2214 2325 c-4 -9 -2 -58 3 -110 4 -52 5 -95 2 -95 -4 0 -30 26 -58
57 -52 60 -84 69 -38 11 57 -72 116 -132 122 -126 3 3 2 41 -4 83 -6 42 -11
93 -11 113 l0 37 63 -69 c35 -39 66 -66 69 -60 3 5 -28 46 -68 92 -55 61 -76
79 -80 67z"/>
<path d="M2000 2138 c-61 -42 -60 -48 15 -132 37 -41 72 -73 77 -70 5 4 -3 19
-18 35 l-28 29 31 33 c38 41 46 63 31 90 -23 44 -58 49 -108 15z m78 -10 c20
-20 13 -58 -15 -84 l-28 -26 -32 37 -32 37 27 24 c30 26 61 31 80 12z"/>
<path d="M1888 2034 c-4 -4 6 -24 22 -44 l30 -38 -47 -38 -46 -38 -32 38 c-21
25 -35 35 -39 27 -9 -14 132 -173 146 -165 5 3 -5 21 -22 40 -16 19 -30 38
-30 42 0 5 18 26 40 47 l41 40 34 -40 c34 -41 60 -43 32 -3 -34 49 -123 139
-129 132z"/>
</g>
</svg>
