<svg width="70" height="70" viewBox="0 0 70 70" fill="none" xmlns="http://www.w3.org/2000/svg">
<path d="M67.2422 0.10778C67.1038 0.162735 64.4187 0.410004 61.2906 0.684746L55.6159 1.20676L54.5087 2.16837L53.4014 3.15746L51.6021 2.82776C46.5087 1.86615 42.1904 1.56393 35.3254 1.7013C27.0763 1.86615 24.1697 2.25079 15.0902 4.39381C13.7892 4.69603 12.4051 5.13562 11.9899 5.32794C10.7719 5.95985 9.47085 7.41601 8.72345 9.03701C8.05909 10.4107 8.00373 10.8228 8.05909 13.845C8.11446 18.9278 9.22172 26.5383 10.6888 31.9233C10.9933 33.1047 11.2148 34.0938 11.1594 34.1213C11.1041 34.1487 10.5504 34.4509 9.94144 34.7532C9.27708 35.1103 8.502 35.8521 8.03141 36.594C5.37399 40.8525 8.52968 46.1276 13.5677 45.8254C14.5919 45.743 14.9241 45.8529 15.5608 46.4848L16.3082 47.2266L10.938 52.5567C6.28748 57.1999 5.40167 57.9417 4.34977 58.1889C3.02106 58.5461 1.1664 60.0297 0.474358 61.3485C0.197543 61.8705 0.00377218 62.9146 0.00377218 64.0135C-0.0239093 65.5521 0.0868167 65.9917 0.806536 67.1456C3.65773 71.7339 10.8549 70.5525 11.9899 65.3048C12.1006 64.8103 14.0106 62.6948 17.5539 59.178L22.9241 53.8205L23.6438 54.5074C24.2251 55.0843 24.3358 55.469 24.3358 56.8152C24.3635 58.9033 25.3047 60.799 26.9379 61.9255C28.0175 62.6673 28.322 62.7497 30.3981 62.7497C32.4188 62.7497 32.8064 62.6673 33.8306 62.0079C34.7718 61.376 35.1593 61.2661 36.1558 61.4035C38.0659 61.6782 39.616 61.0738 43.2977 58.6285C56.2249 50.1114 62.2595 40.5778 64.8339 24.6975C65.1384 22.8017 65.4706 20.384 65.5813 19.34C65.7474 17.4717 65.8027 17.3893 67.2699 15.8782L68.7923 14.3396L69.4567 7.38853C69.8442 3.56957 70.0657 0.327576 69.9826 0.217682C69.8442 -0.00211334 67.8512 -0.0845413 67.2422 0.10778ZM68.3771 2.49807C68.2387 3.3223 68.0449 5.30047 67.4636 11.702L67.2975 13.6802L50.5225 29.011C29.9275 47.831 31.3946 46.5123 31.2839 46.3749C31.2285 46.3199 31.5607 44.5341 31.9759 42.446L32.751 38.5996L40.0866 31.3189C44.1558 27.2801 47.4499 23.8183 47.4499 23.571C47.4499 23.3238 47.2284 23.0215 46.9793 22.9391C46.6194 22.8017 44.6817 24.5601 39.0347 30.1374L31.533 37.5281L27.4085 38.1325C25.1386 38.4348 23.2009 38.6271 23.1178 38.5721C23.0625 38.4897 23.4223 37.9677 23.976 37.3907C24.5019 36.8412 31.9759 28.8187 40.5295 19.6147L56.1142 2.85523L58.7716 2.52554C62.5086 2.08595 66.218 1.7013 67.4636 1.64635C68.4878 1.61888 68.5155 1.61888 68.3771 2.49807ZM47.9482 3.84432C50.1904 4.17401 52.0727 4.47623 52.1281 4.53118C52.1834 4.55865 51.2423 5.68511 50.052 6.97641C48.5018 8.65236 47.7821 9.28428 47.4222 9.17438C46.2873 8.81721 39.8652 8.21277 37.0693 8.21277C35.3807 8.21277 32.4188 8.40509 30.4811 8.62489C26.6057 9.06448 19.4916 10.5206 18.3843 11.0976C16.8895 11.8669 15.5608 13.8176 15.2009 15.6858C14.7303 18.1036 16.2251 28.489 17.7199 33.4069C18.2459 35.1103 18.6611 36.594 18.6611 36.7039C18.6611 36.8138 18.1352 36.3742 17.4985 35.7422C16.3635 34.6707 14.5089 33.7641 13.4016 33.7641C12.848 33.7641 12.6265 33.2695 11.7684 29.7803C10.6888 25.3844 9.52621 16.7299 9.52621 13.0208C9.52621 10.1909 10.8272 7.7457 12.848 6.70167C15.0072 5.60269 25.2493 3.76189 32.5019 3.15746C35.4638 2.91019 44.0727 3.29483 47.9482 3.84432ZM36.1005 15.9331V22.005L29.4015 29.1758C25.7199 33.1322 22.3704 36.7313 21.9552 37.1709L21.1801 37.9952L20.5988 36.6214C18.9379 32.8574 17.8584 28.3241 17.1386 22.3622C16.6127 17.7464 16.6127 15.8232 17.1663 14.7242C18.2459 12.6362 19.021 12.2515 24.7787 11.0976C28.405 10.3833 31.8375 9.97114 34.5226 9.88872L36.1005 9.86124V15.9331ZM43.2423 10.1635C44.7094 10.3283 46.0381 10.5481 46.1765 10.6855C46.398 10.9053 38.398 19.7521 37.9828 19.7521C37.8444 19.7521 37.7614 17.5266 37.7614 14.8067V9.86124H39.1454C39.9205 9.86124 41.7475 9.99862 43.2423 10.1635ZM63.865 20.3565C61.8443 38.215 55.8374 48.4355 42.052 57.557C39.2008 59.4528 38.6472 59.7 37.2631 59.8099C35.8513 59.9198 35.7406 59.8924 35.9897 59.4253C36.1282 59.1231 36.2389 57.9417 36.2389 56.7603V54.6447H37.2354C38.5088 54.6447 40.4188 53.6831 43.1593 51.6225C51.5744 45.3583 55.9758 37.8853 57.8305 26.7581L58.218 24.2854L60.9308 21.7577C62.4256 20.3565 63.7266 19.2026 63.8373 19.2026C63.9204 19.2026 63.9481 19.7246 63.865 20.3565ZM55.8928 28.5989C54.0381 37.5281 49.9412 44.3418 43.1869 49.5619C40.8617 51.3478 38.3704 52.9963 37.9828 52.9963C37.8721 52.9963 37.7614 50.7159 37.7614 47.9409V42.8856L46.9516 34.4784C52.0173 29.8627 56.1973 26.1262 56.2526 26.1811C56.308 26.2635 56.1419 27.335 55.8928 28.5989ZM14.8964 35.8247C15.367 36.0445 19.9621 40.4129 25.0832 45.5232C35.2147 55.6063 35.27 55.6613 34.7164 58.079C34.4119 59.4802 32.7233 61.0738 31.3116 61.3485C28.1836 61.9255 25.0555 58.656 26.0798 55.936C26.2735 55.4415 26.3012 54.9469 26.1351 54.6722C25.9967 54.4249 23.5884 51.9522 20.7649 49.1773L15.6438 44.122L13.4847 44.0945C11.7961 44.067 11.1594 43.9571 10.6058 43.545C9.47085 42.6658 8.91722 41.7317 8.75113 40.4679C8.58504 38.9293 8.80649 38.1325 9.71998 37.0336C11.0487 35.495 13.1248 35.0004 14.8964 35.8247ZM30.841 39.5887C30.841 40.1656 29.4569 47.0618 29.2908 47.1991C29.2355 47.2816 27.6576 45.7979 25.7753 43.9571C23.5054 41.6767 22.5365 40.5228 22.7857 40.4129C23.3116 40.2206 29.097 39.3414 30.0936 39.2865C30.5365 39.2865 30.841 39.3964 30.841 39.5887ZM35.9897 52.9138C35.796 53.1336 33.5815 51.5951 32.2527 50.3312L30.9794 49.1223L33.4707 46.842L35.9621 44.5341L36.0451 48.6828C36.0728 50.9357 36.0728 52.8589 35.9897 52.9138ZM19.713 50.606L21.7061 52.5841L19.2147 55.0568L16.7234 57.5296L14.6473 55.469L12.5712 53.4084L14.9795 51.0181C16.3082 49.6718 17.4708 48.6003 17.5539 48.6003C17.6369 48.6003 18.6058 49.507 19.713 50.606ZM13.6231 56.6504L15.6161 58.6285L13.457 60.7716L11.3255 62.8871L9.2494 60.8265L7.20097 58.7659L9.2494 56.7053C10.3843 55.5789 11.3809 54.6447 11.4639 54.6447C11.547 54.6447 12.5158 55.5514 13.6231 56.6504ZM8.25286 62.0354L10.7165 64.4806L10.0522 65.8269C9.19404 67.5578 7.92069 68.382 6.14907 68.382C3.13178 68.382 1.05567 65.9642 1.6093 63.0245C1.9138 61.4035 3.8515 59.6451 5.37399 59.5901C5.62312 59.5901 6.89647 60.6891 8.25286 62.0354Z" fill="url(#paint0_linear_620_1286)"/>
<path d="M60.848 6.42712C60.7373 6.67439 60.7926 8.02064 60.931 9.44932C61.0418 10.878 61.0695 12.0594 60.9864 12.0594C60.8757 12.0594 60.156 11.3451 59.3809 10.4934C57.9414 8.84488 57.0556 8.59761 58.329 10.1911C59.9068 12.1693 61.54 13.8178 61.7061 13.6529C61.7892 13.5705 61.7615 12.5265 61.5954 11.3725C61.4293 10.2186 61.2909 8.81741 61.2909 8.26792V7.25136L63.0348 9.1471C64.0037 10.2186 64.8618 10.9604 64.9449 10.7956C65.0279 10.6582 64.1698 9.53174 63.0625 8.26792C61.54 6.59197 60.9587 6.09743 60.848 6.42712Z" fill="url(#paint1_linear_620_1286)"/>
<path d="M54.9239 11.5647C53.2353 12.7186 53.263 12.8834 55.3391 15.1913C56.3633 16.3178 57.3322 17.1969 57.4706 17.1145C57.609 17.0046 57.3875 16.5925 56.9723 16.1529L56.1972 15.3561L57.0554 14.4495C58.1073 13.323 58.3287 12.7186 57.9135 11.9768C57.2768 10.7679 56.308 10.6305 54.9239 11.5647ZM57.083 11.8394C57.6367 12.3889 57.4429 13.4329 56.6678 14.1473L55.8927 14.8616L55.0069 13.845L54.1211 12.8285L54.8685 12.1691C55.699 11.4548 56.5571 11.3174 57.083 11.8394Z" fill="url(#paint2_linear_620_1286)"/>
<path d="M51.8237 14.4219C51.7129 14.5318 51.9898 15.0813 52.4327 15.6307L53.2631 16.6748L51.9621 17.7188L50.6887 18.7628L49.8029 17.7188C49.2216 17.0319 48.8341 16.7572 48.7233 16.977C48.4742 17.3616 52.3773 21.7301 52.7648 21.5103C52.9033 21.4279 52.6264 20.9333 52.1558 20.4113C51.7129 19.8893 51.3254 19.3673 51.3254 19.2574C51.3254 19.12 51.8237 18.543 52.4327 17.9661L53.5676 16.8671L54.5088 17.9661C55.4499 19.0925 56.1697 19.1475 55.3946 18.0485C54.4534 16.7022 51.9898 14.2295 51.8237 14.4219Z" fill="url(#paint3_linear_620_1286)"/>
<defs>
<linearGradient id="paint0_linear_620_1286" x1="33.0282" y1="23.3333" x2="33.0282" y2="58.3333" gradientUnits="userSpaceOnUse">
<stop stop-color="#423D39"/>
<stop offset="0.28" stop-color="#544D48"/>
<stop offset="0.485" stop-color="#645C56"/>
<stop offset="0.715" stop-color="#423D39"/>
</linearGradient>
<linearGradient id="paint1_linear_620_1286" x1="61.1293" y1="8.77537" x2="61.1293" y2="12.4421" gradientUnits="userSpaceOnUse">
<stop stop-color="#423D39"/>
<stop offset="0.28" stop-color="#544D48"/>
<stop offset="0.485" stop-color="#645C56"/>
<stop offset="0.715" stop-color="#423D39"/>
</linearGradient>
<linearGradient id="paint2_linear_620_1286" x1="55.7888" y1="13.0092" x2="55.7888" y2="16.0922" gradientUnits="userSpaceOnUse">
<stop stop-color="#423D39"/>
<stop offset="0.28" stop-color="#544D48"/>
<stop offset="0.485" stop-color="#645C56"/>
<stop offset="0.715" stop-color="#423D39"/>
</linearGradient>
<linearGradient id="paint3_linear_620_1286" x1="52.02" y1="16.7803" x2="52.02" y2="20.3338" gradientUnits="userSpaceOnUse">
<stop stop-color="#423D39"/>
<stop offset="0.28" stop-color="#544D48"/>
<stop offset="0.485" stop-color="#645C56"/>
<stop offset="0.715" stop-color="#423D39"/>
</linearGradient>
</defs>
</svg>
