<svg width="25" height="25" viewBox="0 0 25 25" fill="#D8B692" xmlns="http://www.w3.org/2000/svg">
<path d="M22.8804 9.3005L5.55838 0.636999C4.87477 0.296659 4.10286 0.175496 3.34789 0.290028C2.59291 0.404561 1.89163 0.749217 1.33964 1.277C0.78765 1.80479 0.411823 2.49003 0.263398 3.23928C0.114973 3.98853 0.201173 4.76535 0.510246 5.46381L3.47974 12.1099C3.54712 12.2706 3.58182 12.4431 3.58182 12.6174C3.58182 12.7916 3.54712 12.9641 3.47974 13.1248L0.510246 19.771C0.258705 20.3362 0.152367 20.9554 0.200895 21.5722C0.249424 22.189 0.451279 22.7839 0.788118 23.3028C1.12496 23.8218 1.5861 24.2483 2.12964 24.5436C2.67317 24.8389 3.28187 24.9937 3.90042 24.9938C4.47975 24.988 5.05046 24.8527 5.57075 24.5978L22.8928 15.9343C23.5072 15.6251 24.0237 15.1512 24.3846 14.5655C24.7455 13.9798 24.9366 13.3054 24.9366 12.6174C24.9366 11.9294 24.7455 11.2549 24.3846 10.6692C24.0237 10.0836 23.5072 9.60968 22.8928 9.3005H22.8804ZM21.7792 13.7189L4.45719 22.3824C4.22973 22.4916 3.97432 22.5287 3.7252 22.4886C3.47608 22.4486 3.24516 22.3333 3.06341 22.1582C2.88165 21.9831 2.75776 21.7566 2.70833 21.5091C2.6589 21.2616 2.6863 21.0049 2.78686 20.7734L5.74397 14.1273C5.78225 14.0386 5.81531 13.9476 5.84296 13.855H14.3679C14.696 13.855 15.0107 13.7246 15.2428 13.4925C15.4748 13.2604 15.6052 12.9456 15.6052 12.6174C15.6052 12.2891 15.4748 11.9743 15.2428 11.7422C15.0107 11.5101 14.696 11.3797 14.3679 11.3797H5.84296C5.81531 11.2871 5.78225 11.1962 5.74397 11.1075L2.78686 4.46132C2.6863 4.22983 2.6589 3.97313 2.70833 3.72562C2.75776 3.47812 2.88165 3.25165 3.06341 3.07658C3.24516 2.9015 3.47608 2.7862 3.7252 2.74613C3.97432 2.70606 4.22973 2.74313 4.45719 2.85238L21.7792 11.5159C21.9819 11.6197 22.152 11.7775 22.2708 11.9719C22.3895 12.1662 22.4524 12.3896 22.4524 12.6174C22.4524 12.8452 22.3895 13.0685 22.2708 13.2629C22.152 13.4572 21.9819 13.615 21.7792 13.7189Z" fill="#D8B692"/>
</svg>
